<svg width="33" height="33" viewBox="0 0 33 33" fill="none" xmlns="http://www.w3.org/2000/svg">
<g clip-path="url(#clip0_6_1238)">
<path d="M16.3273 0.343018L15.7023 3.19027L16.3273 6.31814C21.8551 6.31814 26.3522 10.8153 26.3522 16.343C26.3522 21.8708 21.8551 26.3679 16.3273 26.3679L15.7023 28.9339L16.3273 32.343C25.1639 32.343 32.3273 25.1796 32.3273 16.343C32.3273 7.50646 25.1639 0.343018 16.3273 0.343018Z" fill="#29CCCC"/>
<path d="M22.3688 16.343C22.3688 13.0064 19.664 10.3015 16.3273 10.3015L15.7023 16.343L16.3273 22.3845C19.664 22.3845 22.3688 19.6796 22.3688 16.343Z" fill="#282866"/>
<path d="M6.3024 26.3679V16.343C6.3024 10.8153 10.7995 6.31814 16.3273 6.31814V0.343018C7.49071 0.343018 0.327271 7.50646 0.327271 16.343V32.343H16.3273V26.3679H6.3024Z" fill="#2EE6E6"/>
<path d="M10.2858 16.343C10.2858 19.6796 12.9907 22.3845 16.3273 22.3845V10.3015C12.9907 10.3015 10.2858 13.0064 10.2858 16.343Z" fill="#4A4080"/>
</g>
<defs>
<clipPath id="clip0_6_1238">
<rect width="32" height="32" fill="white" transform="translate(0.327271 0.343018)"/>
</clipPath>
</defs>
</svg>
